<svg id="Capa_1" data-name="Capa 1" xmlns="http://www.w3.org/2000/svg" viewBox="0 0 28 28"><path d="M14.7,27.85A10.78,10.78,0,0,1,10,26c.26-1.29.63-2.55.92-3.86a2,2,0,0,1-.92.52C7.27,23.5,4.47,24.25,1.67,25L.61,23.91C.74,23.56,2,23.58,2,23.07c.84-2.84,1.66-5.68,2.5-8.52.16-.23-.37-.67-.17-.7,1.13.51,2.22,1.11,3.35,1.63.17.06.18.19.15.33a27.25,27.25,0,0,1-1.22,5.06,4.57,4.57,0,0,0,1-.8,7.55,7.55,0,0,1,2-2.05c.81.66,1-.22.66,1.19-.08.41.54.05.6.48.23.87,1.26.79,1.54,1.45-.14.15-.57.13-.39.42C12.93,23.66,13.83,25.75,14.7,27.85Z" style="fill:#333"/><path d="M27.32,18.15a10.85,10.85,0,0,1-4.49,7.71,17,17,0,0,1-.14-2.16c.09-1.53-.54-3.6.22-4.94s1.32-2.55,2-3.81c0,0,0-.18.15-.1a13.19,13.19,0,0,1-.62,1.69c-.07.2-.07.22.13.29.88.36,1.74.75,2.6,1.14C27.25,18,27.35,18,27.32,18.15Z" style="fill:#1d1d1b"/><path d="M27.32,18.15a21.47,21.47,0,0,0-2.83-1.3c-.13-.05-.18-.1-.11-.25.09-.37,1-2.1.66-2.26a6.36,6.36,0,0,0-3.66-1.4c0-.55.78-.58,1.18-.57-.1-.21-.72-.6-.65-.74s.53.1.63.15,0,0,0,0,0,0,0,0c-.22-.3-1.25-.91-.19-.61-1.13-.6.51-.46.46-1.91.1-.88-.38-1.1-1.13-1.31s-.34-.18-.15-.64C25.43,9,27.86,13.87,27.32,18.15Z" style="fill:#808587"/><path d="M14.08,6c.63-1.6.39-1.42,2-.92.56-.15,3.82-1,3.66,0A12.74,12.74,0,0,0,19,8.79a21.41,21.41,0,0,1-5.93.06c-.12-.06-.05-.15,0-.22C13.4,7.77,13.64,6.82,14.08,6Z" style="fill:#333"/><path d="M14.7,27.85c-1-2.06-1.79-4.26-2.74-6.36-.14-.2.35-.31.48-.36s.23.16.37.22c.19-1.21.53,0,1,.28.19-.77.12-1.34.7-.29.39-1.1.24-.61,1-1.4.71,0,.9,1.25,1.22,1.76.18.31-.33.39-.52.5a.3.3,0,0,0-.23.35c0,1.79.13,3.65,0,5.4h0A6,6,0,0,1,14.7,27.85Z" style="fill:#1d1d1b"/><path d="M22.61,19.94q.11,3,.22,5.92a9.72,9.72,0,0,1-3,1.57c-.21.07-.22.07-.22-.16a4.09,4.09,0,0,0,0-.93c-.07,0-.07-.06-.09-.1-.06-.37-.4-.84-.21-1.19,1.19-1.64-.57-1.12.4-2.93.92-.83,1.9-1.64,2.77-2.53C22.66,19.33,22.58,19.81,22.61,19.94Z" style="fill:#fefefe"/><path d="M9.93,6.35c.54.57-.15,1.23-.2,1.78-1,2-.18,1,.74,1.55.29.2.54,0,.74.06-.32,1-1.53-.17-2,.92-.13.3-.39.59-.26.92-.27,1.12.24.2.79,0,.21-.09-.28-.43.05-.46,1.29.8.4.85-.2,1.66-.31.36-.64.7-.94,1.06s-1.18.17-1.29.49a2,2,0,0,1-.19.42c-.17.08-.77-.44-1-.54s-.06-.26.1-.31a.31.31,0,0,0,.19-.25,19.14,19.14,0,0,0,.63-3.35.16.16,0,0,1,0-.25c.35-.44.48-1,.82-1.48s.66-1,1-1.43c.2-.3.39-.08.39.18C9.48,7.21,9.77,6.24,9.93,6.35Z" style="fill:#b0b7c1"/><path d="M21.62,7.24c-.54,1-.37.91-1.51,1.28-.07,0-.14,0-.2,0,.11-1.75.48-3.55.55-5.32A24.36,24.36,0,0,0,20.88.75c.07-.15,0-1,.3-.69C22.72,1.62,22.38,5.35,21.62,7.24Z" style="fill:#eef0f0"/><path d="M19.7,22.12c-.46,1.18-.13,1-1.37,1-.35,0-.42.64-.59.88-.14.5.67.92.49,1.44a4.86,4.86,0,0,0-.29,2.14.38.38,0,0,1-.05.26c-.18,0-.06-.72-.09-.86-.17.28-.19.92-.61,1A5.62,5.62,0,0,1,16,28c0-1.85-.05-3.71-.08-5.56,0-.2.67-.38.84-.5.59.22,1.5,1.06,2.19.72C19.11,22.51,19.54,22.1,19.7,22.12Z" style="fill:#cbcbcb"/><path d="M4.35,13.85c0,.25.33.39.24.65-.85,2.9-1.7,5.81-2.56,8.71-.12.36-1.15.43-1.42.7C1.74,20.66,3,16.94,4.35,13.85Z" style="fill:#5a5a5a"/><path d="M1.67,25C4.71,23.86,8.2,23.61,11,22c-.32,1.31-.59,2.66-1,3.95-1.31-.87-.78-.7-.63-2.14,0-.16,0-.18-.16-.14-2.37.42-4.71,1-7.06,1.54C1.94,25.33,1.83,25.11,1.67,25Z" style="fill:#1d1d1b"/><path d="M9.14,7l-1,1.46c-.4.49-.53,1.19-1,1.65-.18.08.21.17,0,.65-.21,1-.43,2-.64,2.93a.31.31,0,0,1-.19.24c-.13,0-.25.21-.38.13s-.68-.33-.7-.5A13.22,13.22,0,0,1,8.64,7.17C8.76,7,9,7,9.14,7Z" style="fill:#eef0f0"/><path d="M9.28,9.23s-.13,0-.09-.09C9.57,7.86,10.86,7.37,12,6.82c.12,0,.12.12.14.19.15.45.3.9.49,1.33.89,1.52-.27,1-1.33,1.35C10.1,9,10.4,9.24,9.28,9.23Z" style="fill:#818587"/><path d="M12.74,8.78C11.81,6.65,11,4,11.73,1.71c.07-.1.31-.52.4-.26.26.74.59,1.47.82,2.22-.18,0-.26-.23-.31.07a7.63,7.63,0,0,0-.05,1.51c0,1.12.14,2.24.23,3.35C12.83,8.67,12.85,8.75,12.74,8.78Z" style="fill:#eef0f0"/><path d="M17.89,27.85a10.82,10.82,0,0,1,0-1.51c0,.05,0,.09,0,.12.35-1,.83-2.06,1.22-3.08,0-.09,0-.23.18-.26.1.23.58,1,.43,1.15s-.58.81-.51,1.08a4.67,4.67,0,0,1,.32,2.06C19.64,27.63,18.1,27.84,17.89,27.85Z" style="fill:#333"/><path d="M12.74,8.78c.1-.38-.69-6.3.21-5.11A25,25,0,0,1,14.08,6c-.43,1-.73,2.15-1.2,3.09Z" style="fill:#b0b7c1"/><path d="M20.46,3.19a50.4,50.4,0,0,1-.52,5.32c.06.11-.94.36-1,.26A12.71,12.71,0,0,1,20.46,3.19Z" style="fill:#b0b7c1"/><path d="M5.3,13.59c.61.42,1.25.8,1.89,1.19.28.1.82.37.48.73-1-.49-2-.92-2.95-1.48C5.08,13.45,4.81,13.33,5.3,13.59Z" style="fill:#cbcbcb"/><path d="M7.77,23.94c.21,0,1.85-.53,1.71-.23-.11.52-.16,1.07-.31,1.57C8.62,24.93,8.27,24.31,7.77,23.94Z" style="fill:#808587"/><path d="M9.93,6.35c-.1,0-.1.11-.13.17l-.43,1c0-.19,0-.39-.23-.45.16-.23.34-.46.48-.69S9.8,6.22,9.93,6.35Z" style="fill:#eef0f0"/><path d="M17.4,27.88a8.73,8.73,0,0,1,.45-1.05v1A.48.48,0,0,1,17.4,27.88Z" style="fill:#fcfcfc"/><path d="M15.59,28H16A.44.44,0,0,1,15.59,28Z" style="fill:#cbcbcb"/><path d="M10.41,18.35c-1.53,0-.59-1.42-.21-2.16.16-.23,0-.37-.17-.51a.83.83,0,0,1,.49-1.46,3.38,3.38,0,0,1,1.19.31c0,.1-.05.16-.1.22a2.57,2.57,0,0,0-.4.77c-.07.23,0,.52.21.22.75-1.06,2.13-.94,3.23-1.29.38-.19,1.06-.08,1.15.36-.26.14-.62,0-.92.1a.38.38,0,0,0-.27.63c.55.6,1.71.65,1.85,1.55.06.54-.61.66-.66,1.14-.21,1.19-1.74,1.39-2.74,1.32a2.32,2.32,0,0,1-.58-.08c-.11,0-.14.1-.23.07-.06-.22,0-.31.22-.28,1.08.14,2.64.19,3.09-1.05C13.45,19.71,12.16,17.81,10.41,18.35Z" style="fill:#eef0f0"/><path d="M11.71,14.54a1.92,1.92,0,0,1-.66-.19c-.86-.46-1.76.7-1,1.31.3.24.31.27.12.62a4.34,4.34,0,0,0-.61,1.56c-2.51.72-2.42,1.34-1.91-1.4,0-.25.31-.85,0-.93.12-.38.08-.37-.24-.56a.82.82,0,0,1,.72-.82c.41-.05.59-.4.83-.66a22,22,0,0,1,1.84-1.9c1.58,0,.51,1,1.8,1.59.4,0-.26.95-.3,1.19S11.92,14.58,11.71,14.54Z" style="fill:#808587"/><path d="M12.26,19.55c0-.18.14-.15.26-.13,1.1.2,2.77.18,3.21-1.08,0-.6.74-.65.68-1.26.3.06-.35,1.4-.36,1.71s-.21.92-.56,1.18c-.69.89-.52.11-1,1.49-.66-1.21-.44-.53-.68.32-.3-.33-.5-.67-.81-1-.08,0-.13.49-.18.62a5.62,5.62,0,0,0-1.22-.91,1.5,1.5,0,0,1-.84-1C11.21,19.26,11.67,19.77,12.26,19.55Z" style="fill:#b0b7c1"/><path d="M7.39,18.46c.7-.18,1.38-.42,2.06-.64.15-.08.15.11.18.22-1.22.84-1.77,2.25-3.09,3A17.33,17.33,0,0,1,7.39,18.46Z" style="fill:#1d1d1b"/><path d="M12.26,19.55c-.21.24-.65,0-.93,0-.12,0-.19-.16-.25-.13a.54.54,0,0,1-.28.08c-.18-.05-.62.06-.56-.24s0-.78.35-.81a2.5,2.5,0,0,1,1.64.16A9.06,9.06,0,0,0,14.9,19C13.74,19.85,12.08,18.91,12.26,19.55Z" style="fill:#fefefe"/><path d="M14.9,19c-1.69.3-3.16-1-4.52-.45.32-1.41,3.23,1.24,5.23-.46A1.17,1.17,0,0,1,14.9,19Z" style="fill:#b0b7c1"/><path d="M22.61,19.94c-.4-2.23-.84-4.72-1.28-6.85,0-.07,0-.13.06-.16a6,6,0,0,1,3.78,1.45c.12.06-.07.39-.11.48-.52.72-.84,1.6-1.29,2.37S22.59,18.94,22.61,19.94Z" style="fill:#333"/><path d="M12.74,13.24c-1.08-.15-.84-1.5-1.3-1.51-.31-.07-.7-.06-.92-.29-.55-.4-.89-.7-.37-1.27,1.75-.12.12-.64,2.61-.75.08.34-.44.72.13.81a14.91,14.91,0,0,0,8.32-.34c.45-.18,0-.85.05-1.2.06,0,.12,0,.18,0,.3.08.61.13.91.2s.16-.37.31-.53c1.52,3.74-6.42,4.07-8.7,3.78C13.32,12.08,13.52,13.71,12.74,13.24Z" style="fill:#333"/><path d="M21.08,11.32s0-.09.07-.11c.63-.26.69-.56,1.31,0-.2,0-.38-.07-.6-.07.11.08.93.71.65.69a3.84,3.84,0,0,0-.64-.18,9.73,9.73,0,0,1,.79.78c-1.66-.07-1.28.75-1.2,2,0,.18-.14.22-.16,0a4.37,4.37,0,0,0-.44-1c-.08-.14-.22-.29-.13-.47A8.87,8.87,0,0,0,21.08,11.32Z" style="fill:#1d1d1b"/><path d="M22.66,8.36c0,.14,0,.63-.2.62-.58-.21-1.41,0-1.35-.88C21.32,7.51,22.31,8.09,22.66,8.36Z" style="fill:#1d1d1b"/><path d="M22.51,11.8a.09.09,0,0,0,.08,0,.2.2,0,0,1,.08.1A.23.23,0,0,1,22.51,11.8Z" style="fill:#414343"/><path d="M17.47,10.66a13.57,13.57,0,0,1-4.79-.44c-.37,0,.27-1.22.34-1.41a31.06,31.06,0,0,0,5.54,0c.26-.06-.21.51-.24.59A7.08,7.08,0,0,1,17.47,10.66Z" style="fill:#fecb01"/><path d="M17.47,10.66c.39-.57.75-1.16,1.12-1.74,0,0,0-.07,0-.08a11.29,11.29,0,0,0,2.55-.74,8.48,8.48,0,0,1,.35,1.57C21.09,10.4,18.33,10.56,17.47,10.66Z" style="fill:#d7a005"/><path d="M21,11.7c-.33,2.33-.53.44.37,2.81a11.64,11.64,0,0,1,0-1.32s0,0,0,0c.38,2.13.82,4.25,1.17,6.38A33.22,33.22,0,0,1,19.78,22c-.07-.09,0-.17,0-.24.23-.59.45-1.18.71-1.76a4.64,4.64,0,0,0,.1-2c0-.74,0-1.51-.1-2.26-.31.62-.65,1.23-1,1.85-.2.32-.28.75-.63.94-.94.51-1.86,1-2.8,1.56-.23.19-.39-.17-.63-.15A3.58,3.58,0,0,0,16,18.68c.06-.46.53-1.25.38-1.6,0-.7-1-.67-.68-1.37a.83.83,0,0,0-1.16-1.17c-.19.11-1,.17-.83-.2,1.31-2.31.23-.86,3.68-.84.6,0,1.06-.05,1.35-.65a9.87,9.87,0,0,0,2.05-1.36C21.08,11.24,21.09,11.45,21,11.7Z" style="fill:#969ea4"/><path d="M15.93,20.17c3.76-2.21,2.59-.74,4.61-4.52.12,1.24.1,2.48.19,3.72A19.6,19.6,0,0,1,19.78,22c-1.07,1.14-2,.63-3.06-.14C16.49,21.3,16.19,20.74,15.93,20.17Z" style="fill:#797f83"/><path d="M19.33,23.12c-.51,1.13-.91,2.23-1.4,3.4.11-1.26.65-.94-.24-2.23-.16-.23.29-.8.36-1.09s1-.05,1.27-.11A0,0,0,0,1,19.33,23.12Z" style="fill:#1d1d1b"/><path d="M10.28,10.12c-.39.33-.44.64-.17,1-.11.12-.26,0-.39.11a2.22,2.22,0,0,1-.5.28c-.08,0-.14.12-.25.1-.22-.32.12-.63.22-.93A.88.88,0,0,1,10.28,10.12Z" style="fill:#818688"/><path d="M11.24,9.68c-.54.48-1.12-.37-1.7-.13a.33.33,0,0,1-.34-.17c-.07-.07,0-.1.08-.15.43,0,.88-.23,1.26,0C10.65,9.35,11.34,9.57,11.24,9.68Z" style="fill:#eef0f0"/><path d="M9,11.6a3.78,3.78,0,0,1,.75-.38c.23.34.28.4-.13.54C9.06,12.08,8.65,12.68,9,11.6Z" style="fill:#eef0f0"/><path d="M9.27,7.67c.14.52-1.65,2.61-1.41,2.94-.15-.06-.19-.15-.32-.23.32-.06.39-.3.5-.52C8.41,9.13,8.82,8.41,9.27,7.67Z" style="fill:#8d9296"/><path d="M9.83,11.18c.4-.25.66.23,1,.41.05.1-.06.11-.1.15a.78.78,0,0,1-.24.2C10.52,11.55,10,11.44,9.83,11.18Z" style="fill:#8c9195"/><path d="M8.15,14.13c-.45.09-.58.46-.72.82l-.24-.17C7.45,14,7.37,14.2,8.15,14.13Z" style="fill:#8d9296"/><path d="M9.14,9.33c0,.42-.7,1.14-.51,1.38-.08,0-.2,0-.25,0A10.93,10.93,0,0,0,9.1,9.32Z" style="fill:#8e9397"/><path d="M13.74,14.5l.44.12c-.95.2-2.09.26-2.71,1.13-.2.32-.45.22-.33-.15a2.73,2.73,0,0,1,.57-1.06A3.52,3.52,0,0,1,13.74,14.5Z" style="fill:#fefefe"/><path d="M15.8,14.78c.52.65-.56,1.06.2,1.65a5.9,5.9,0,0,1-1.24-.72c.23-.11.55,0,.59-.37s-.28-.35-.52-.46C15.15,14.78,15.5,14.88,15.8,14.78Z" style="fill:#b0b7c1"/><path d="M14.83,14.88c.58-.09.83.72.19.83A.43.43,0,1,1,14.83,14.88Z" style="fill:#797f84"/><path d="M12.57,14.43l-.41,0a6.31,6.31,0,0,0,.58-1.23,1.89,1.89,0,0,0,.41,0s0,.06,0,.09C12.93,13.7,12.86,14.17,12.57,14.43Z" style="fill:#969ea4"/><path d="M21.41,13.14a4.18,4.18,0,0,0,0,.79C21.33,13.85,21.33,12.83,21.41,13.14Z" style="fill:#666a6c"/><path d="M18.81,12.86c-.38.94-1.59.67-2.39.62-.41,0-1.54-1-1.49-1.34a16.43,16.43,0,0,0,4-.27A1.2,1.2,0,0,1,18.81,12.86Z" style="fill:#1d1d1b"/><path d="M12.57,14.43c.25-.48.48-1,.72-1.46.22-.22.84,0,1.13,0s-.69,1.24-.68,1.52A5.11,5.11,0,0,0,12.57,14.43Z" style="fill:#b0b7c1"/><path d="M18.81,12.86a3,3,0,0,0,.14-1,11.22,11.22,0,0,0,2-.57c.22-.18.15.29.11.4v-.34A8.74,8.74,0,0,1,18.81,12.86Z" style="fill:#787e83"/><path d="M14.53,13.07a2.61,2.61,0,0,0-1.24-.1c.61-1.32.18-.8,1.64-.83,0,.08.08.17,0,.25S14.72,12.93,14.53,13.07Z" style="fill:#8c9195"/><path d="M14.56,13.07a4.22,4.22,0,0,1,.41-.79,3.15,3.15,0,0,0,1.45,1.2A7.94,7.94,0,0,1,14.56,13.07Z" style="fill:#787e83"/></svg>