<svg id="HMA" xmlns="http://www.w3.org/2000/svg" viewBox="0 0 28 28"><path d="M19.32,6.08l-5.08-1a1.1,1.1,0,0,0-.51,0l-5.12,1A.71.71,0,0,0,8,6.74v6.31c0,3.66,3.71,6,5.28,6.79a1.57,1.57,0,0,0,1.4,0c1.57-.75,5.15-2.88,5.15-6.8V6.76a.72.72,0,0,0-.54-.68Z" style="fill:#f6edd7"/><path d="M7.87,16.64a.9.9,0,0,1-.24,0,1.67,1.67,0,0,1-1.11-.44,2.85,2.85,0,0,1-.86-2.11,3.31,3.31,0,0,1,.28-1.32A1.81,1.81,0,0,1,7,11.7v1.39l0,0v.36A6.5,6.5,0,0,0,7.87,16.64Zm12.19,0a.9.9,0,0,0,.24,0,1.67,1.67,0,0,0,1.11-.44,2.85,2.85,0,0,0,.86-2.11A3.17,3.17,0,0,0,22,12.79,1.82,1.82,0,0,0,20.9,11.7v1.41l0,.36A6.72,6.72,0,0,1,20.06,16.64Z" style="fill:#ae55b8"/><path d="M3.85,15a2.75,2.75,0,0,1,2.48-2.95,24.53,24.53,0,0,1,.12,2.64C6.45,16.34,7.7,18,6.33,18A2.74,2.74,0,0,1,3.85,15ZM24.1,15a2.75,2.75,0,0,0-2.48-2.95,24.53,24.53,0,0,0-.12,2.64c0,1.63-1.25,3.26.12,3.26A2.74,2.74,0,0,0,24.1,15Z" style="fill:#87478f"/><path d="M21.62,18.33a1,1,0,0,1-.83-.34c-.3-.39-.14-.95.06-1.66a6.26,6.26,0,0,0,.29-1.62A24.8,24.8,0,0,1,21.27,12l0-.31h.31A3.1,3.1,0,0,1,24.45,15,3.11,3.11,0,0,1,21.62,18.33Zm.32-5.88c0,.42-.09,1.21-.09,2.26a6.39,6.39,0,0,1-.33,1.8c-.1.38-.26.94-.17,1.06s.09.05.27.05A2.4,2.4,0,0,0,23.75,15,2.5,2.5,0,0,0,21.94,12.45ZM6.33,18.33A3.11,3.11,0,0,1,3.5,15a3.1,3.1,0,0,1,2.83-3.3h.31l0,.31s.12,1,.12,2.68a6.27,6.27,0,0,0,.3,1.62c.2.71.36,1.27.05,1.66A1,1,0,0,1,6.33,18.33ZM6,12.45A2.5,2.5,0,0,0,4.2,15a2.4,2.4,0,0,0,2.13,2.6c.18,0,.25,0,.26-.05s-.06-.68-.17-1.06a6.77,6.77,0,0,1-.32-1.8C6.1,13.66,6.05,12.87,6,12.45Z" style="fill:#ae55b8"/><path d="M14.11,16a1.34,1.34,0,0,1-1.31-1.46V12.67a2,2,0,0,1-1-1.88,2.32,2.32,0,0,1,2.3-2.34,2.28,2.28,0,0,1,2.27,2.34,2.05,2.05,0,0,1-.95,1.79v2A1.36,1.36,0,0,1,14.11,16Z" style="fill:#59505e"/><path d="M14.11,9a1.74,1.74,0,0,1,1.74,1.81,1.83,1.83,0,0,1-.94,1.52v2.24a.8.8,0,1,1-1.59,0V12.37a1.6,1.6,0,0,1-1-1.58A1.75,1.75,0,0,1,14.11,9m0-1.06a2.83,2.83,0,0,0-2.81,2.87,2.48,2.48,0,0,0,1,2.16v1.6a1.85,1.85,0,1,0,3.69,0V12.82a2.45,2.45,0,0,0,.95-2A2.8,2.8,0,0,0,14.11,7.92Z" style="fill:#edd7d2"/><path d="M27.74,19.31s0,0,0-.07a.62.62,0,0,0,0-.19,4.21,4.21,0,0,0,0-.51,2.43,2.43,0,0,0-.06-.57,4,4,0,0,0-4-3.49,4,4,0,0,0-2,.52A8.43,8.43,0,0,0,22,13.47v-.36l0,0,0-6.22a2.6,2.6,0,0,0-1.67-2.61h0L14.41,3.12a2.26,2.26,0,0,0-.82,0l-5.38,1A2.81,2.81,0,0,0,6,6.87v7s.12.77.19,1.12a3.88,3.88,0,0,0-1.91-.49,4.07,4.07,0,0,0-4,4.09v.18c0,4,6,6.19,14,6.19,5.5,0,10-1.13,12.16-3.17a4.14,4.14,0,0,0,1.43-2.44ZM7,6.88A1.81,1.81,0,0,1,8.37,5.13l5.38-1a1.14,1.14,0,0,1,.45,0L20,5.27a1.53,1.53,0,0,1,.95,1.61l0,7h0c-.18,3.39-2.76,5-5,6.61a3,3,0,0,1-1.79.65A5.21,5.21,0,0,1,11.46,20a10.69,10.69,0,0,1-3.6-3.71A5.19,5.19,0,0,1,7,13.47l0-.38V6.88Z" style="fill:#ae55b8"/></svg>